<?xml version="1.0" standalone="no"?>
<!DOCTYPE svg PUBLIC "-//W3C//DTD SVG 20010904//EN"
 "http://www.w3.org/TR/2001/REC-SVG-20010904/DTD/svg10.dtd">
<svg version="1.0" xmlns="http://www.w3.org/2000/svg"
 width="1000.000000pt" height="1000.000000pt" viewBox="0 0 1000.000000 1000.000000"
 preserveAspectRatio="xMidYMid meet">
<metadata>
Created by potrace 1.14, written by Peter Selinger 2001-2017
</metadata>
<g transform="translate(0.000000,1000.000000) scale(0.100000,-0.100000)"
fill="#000000" stroke="none">
<path d="M4642 9699 c-65 -11 -123 -40 -151 -75 -46 -59 -16 -86 108 -102 55
-6 112 -20 140 -34 126 -60 242 -257 280 -472 11 -58 15 -176 7 -176 -2 0 -37
16 -77 35 -282 132 -606 130 -1012 -7 -66 -22 -120 -38 -121 -36 -51 85 -141
176 -231 233 -156 100 -432 190 -735 240 -348 57 -695 61 -777 9 -12 -8 -29
-14 -37 -14 -28 0 -74 -50 -90 -98 -35 -102 -48 -272 -43 -547 6 -273 17 -377
63 -583 42 -189 125 -385 210 -494 24 -31 44 -59 44 -62 0 -3 -39 -65 -87
-138 -100 -151 -234 -409 -282 -543 -30 -81 -53 -172 -96 -365 -27 -119 -13
-214 33 -239 32 -17 37 -14 51 37 l13 47 14 -28 c8 -15 12 -31 10 -36 -3 -5
-2 -32 4 -59 8 -46 6 -62 -29 -169 -96 -291 -124 -604 -76 -823 20 -90 87
-236 141 -307 36 -47 85 -92 129 -118 16 -10 16 -14 -9 -64 -37 -72 -113 -190
-144 -224 -14 -15 -36 -27 -49 -27 -28 0 -29 -10 -4 -59 28 -53 46 -65 101
-64 58 1 133 34 210 92 l55 42 12 -33 c18 -50 16 -54 -26 -66 -114 -35 -222
-214 -250 -414 -28 -199 74 -424 249 -553 91 -67 299 -155 368 -155 11 0 51
-24 88 -54 175 -136 237 -168 496 -255 318 -108 342 -113 583 -118 110 -3 201
-6 203 -8 2 -2 -8 -25 -21 -52 -35 -68 -49 -151 -37 -215 6 -28 10 -52 10 -53
0 -1 -55 -41 -123 -88 -283 -197 -338 -258 -421 -462 -41 -103 -177 -417 -286
-660 -34 -77 -95 -232 -135 -345 -40 -113 -82 -230 -94 -260 -35 -91 -25 -140
27 -140 64 0 98 53 222 345 39 94 81 186 92 205 11 19 42 89 69 155 27 66 56
125 64 131 8 6 35 64 60 130 80 206 136 307 269 484 136 181 165 213 275 293
l75 54 44 -34 c88 -67 228 -123 307 -123 l46 0 -6 -58 c-3 -31 -12 -142 -21
-247 -8 -104 -16 -190 -17 -190 -54 -25 -91 -80 -81 -119 9 -38 50 -70 89 -70
44 0 91 43 107 97 11 38 11 41 -17 64 l-28 25 12 186 c7 103 13 216 14 252 l2
65 85 7 c74 5 139 23 234 63 16 7 18 5 13 -8 -16 -41 -29 -641 -24 -1057 6
-432 14 -555 40 -609 28 -58 69 -26 87 68 23 121 42 720 38 1167 l-5 441 136
-1 c75 -1 160 1 190 4 l54 5 20 -72 c18 -68 21 -73 46 -73 15 0 30 2 33 6 3 3
-3 34 -14 70 -22 74 -19 94 14 94 38 0 159 38 225 70 l63 31 187 -104 c104
-58 217 -119 253 -137 36 -18 68 -38 72 -44 4 -6 31 -83 59 -171 28 -88 69
-208 90 -267 34 -92 38 -110 27 -132 -7 -17 -14 -22 -19 -15 -4 6 -12 9 -18 5
-7 -5 -6 -15 6 -32 12 -19 18 -22 24 -12 5 7 6 -18 3 -56 -3 -38 -8 -74 -11
-79 -4 -6 -1 -7 7 -2 10 6 12 3 7 -11 -7 -18 -7 -18 8 0 10 13 12 23 5 30 -5
5 -10 17 -10 25 1 13 4 12 15 -3 15 -19 15 -19 15 1 0 36 18 36 29 1 5 -18 21
-78 35 -133 14 -55 37 -138 51 -184 14 -47 23 -93 19 -103 -9 -28 -34 -21 -49
15 -8 17 -14 26 -15 19 0 -10 -5 -10 -21 -1 -17 9 -20 8 -15 -3 3 -7 9 -21 12
-30 4 -10 11 -18 16 -18 5 0 6 5 2 12 -5 7 -3 8 5 3 9 -5 10 -10 2 -18 -8 -8
-4 -20 12 -41 33 -44 42 -60 29 -52 -6 3 -15 -1 -20 -10 -5 -9 -12 -15 -15
-15 -26 4 -36 -1 -31 -14 4 -8 -1 -17 -10 -21 -9 -3 -13 -11 -10 -16 4 -6 0
-14 -7 -19 -11 -7 -11 -9 2 -9 20 0 42 24 32 34 -4 4 1 4 11 0 17 -6 18 -4 12
22 -7 27 -7 28 8 9 12 -16 17 -18 28 -7 11 11 10 14 -2 22 -8 5 -12 12 -8 15
3 4 12 0 19 -8 12 -12 17 -12 36 0 22 14 23 13 53 -48 30 -63 75 -119 94 -119
5 0 20 -10 33 -22 32 -30 57 -15 61 36 4 42 -73 341 -162 626 -19 63 -44 149
-56 190 -76 273 -168 548 -210 627 -21 39 -36 74 -33 77 3 3 2 17 -1 31 -5 20
-44 51 -164 129 -86 57 -208 129 -270 162 l-113 59 8 40 c13 66 6 134 -20 186
l-24 48 51 11 c28 6 105 14 171 19 139 11 201 29 361 106 116 55 205 110 286
177 l48 39 117 4 c135 4 209 21 308 70 65 32 142 93 176 140 8 11 49 46 92 79
99 75 195 178 231 250 19 37 33 86 40 137 l10 79 32 0 c93 0 278 153 387 320
209 322 378 780 438 1183 24 169 26 433 3 568 -41 241 -155 481 -294 619 -81
81 -136 108 -180 90 -47 -19 -41 -59 25 -170 121 -205 174 -400 175 -637 0
-75 -3 -103 -12 -104 -31 -3 -64 4 -70 15 -6 8 -8 8 -8 -1 0 -7 -7 -13 -16
-13 -9 0 -27 -9 -41 -20 -14 -11 -34 -20 -44 -20 -12 0 -19 -7 -19 -20 0 -16
-7 -20 -34 -20 -19 0 -38 -4 -41 -10 -3 -5 -24 -10 -46 -10 -34 0 -39 -3 -39
-22 0 -17 -11 -28 -39 -41 -20 -9 -45 -17 -54 -17 -9 0 -17 -4 -17 -8 0 -5
-34 -9 -75 -10 -41 -1 -75 1 -75 6 0 4 -16 8 -35 9 -20 1 -41 5 -48 11 -7 5
-34 10 -61 11 -60 1 -156 21 -156 33 0 11 -41 10 -60 -2 -9 -6 -17 -5 -21 2
-4 7 -14 6 -29 -2 -32 -17 -155 -8 -179 14 -9 9 -33 16 -53 16 -22 0 -41 7
-53 20 -21 23 -70 28 -62 7 4 -10 -2 -13 -19 -9 -14 2 -24 0 -24 -7 0 -6 -14
-11 -31 -11 -54 0 -109 -21 -109 -42 0 -14 -8 -18 -36 -18 -28 0 -37 -5 -41
-20 -4 -15 -11 -19 -27 -15 -16 5 -18 4 -6 -4 8 -5 11 -13 7 -17 -8 -9 -56 14
-75 36 -7 8 -5 -1 4 -20 13 -26 13 -32 3 -24 -8 6 -22 10 -31 9 -10 -2 -16 2
-15 8 1 7 -4 11 -11 9 -8 -1 -11 2 -8 7 3 5 -1 14 -9 21 -8 7 -15 19 -15 27 0
8 -4 11 -10 8 -5 -3 -10 -2 -10 4 0 5 -7 16 -15 25 -50 49 -137 262 -150 366
-9 73 -27 100 -66 100 -77 0 -101 -49 -98 -203 1 -82 -2 -111 -12 -118 -8 -4
-16 -3 -20 3 -4 6 -14 8 -22 5 -9 -3 -18 1 -21 9 -3 8 -10 14 -16 14 -6 0 -18
7 -27 16 -12 12 -35 15 -102 13 -47 -1 -91 -6 -98 -11 -7 -6 -25 -6 -45 1 -18
5 -60 17 -93 26 -87 24 -86 24 -84 37 4 29 -2 38 -26 38 -16 0 -25 -6 -25 -16
0 -10 -6 -13 -19 -9 -12 3 -21 0 -25 -10 -6 -18 -33 -20 -38 -3 -7 20 -28 -2
-28 -30 l0 -26 -26 32 c-15 17 -30 29 -34 27 -4 -3 -13 10 -20 28 -6 17 -16
40 -20 49 -22 40 -42 162 -46 268 -5 150 -10 177 -35 185 -45 15 -114 -65
-150 -173 -23 -68 -31 -199 -19 -325 3 -28 0 -51 -6 -55 -14 -9 -14 -42 1 -42
6 0 17 6 24 13 11 10 15 9 19 -2 2 -8 22 -50 44 -93 122 -243 398 -451 670
-504 69 -13 100 -15 149 -7 47 8 75 7 113 -3 76 -20 177 -32 325 -40 130 -6
137 -7 199 -42 36 -20 88 -41 115 -47 49 -11 51 -12 69 -66 62 -181 94 -368
109 -629 l11 -195 31 -27 c51 -44 94 -61 135 -53 61 11 130 53 191 115 56 56
59 58 75 41 23 -25 21 -35 -25 -118 -23 -41 -39 -75 -38 -77 2 -1 23 -8 46
-14 87 -26 146 -105 147 -202 2 -113 -59 -218 -218 -376 -124 -123 -156 -142
-302 -180 -86 -22 -112 -25 -195 -19 l-96 6 -67 -66 c-47 -45 -91 -76 -144
-101 -42 -20 -117 -56 -167 -79 -219 -106 -372 -139 -760 -165 -233 -16 -302
-18 -700 -25 -433 -9 -633 2 -995 49 -310 42 -377 55 -519 106 -314 112 -409
171 -466 287 -36 74 -44 165 -22 260 9 37 18 97 21 133 3 36 12 92 20 125 10
35 16 101 16 162 0 56 4 104 9 108 5 3 26 -6 47 -20 21 -14 48 -28 61 -30 13
-3 33 -7 46 -10 15 -3 27 -17 36 -42 22 -60 75 -137 140 -202 114 -114 205
-146 391 -138 128 5 206 25 327 84 162 79 263 248 292 489 24 199 -80 442
-221 515 -75 39 -246 62 -289 39 -21 -12 -26 -52 -6 -68 6 -5 30 -15 52 -21
22 -6 49 -18 59 -26 11 -8 33 -15 48 -15 108 0 200 -116 220 -277 10 -80 8
-97 -12 -178 -12 -49 -27 -101 -33 -115 -5 -14 -11 -32 -12 -41 -1 -9 -11 -27
-23 -39 -12 -13 -22 -30 -22 -37 0 -7 -5 -13 -12 -13 -6 0 -8 -3 -5 -6 10 -10
-53 -65 -66 -57 -5 3 -8 2 -4 -3 3 -5 -35 -29 -84 -53 -110 -54 -243 -79 -321
-60 -27 6 -48 16 -48 22 0 6 -3 7 -6 4 -8 -8 -104 44 -104 56 0 5 -4 6 -9 3
-15 -10 -98 89 -126 150 -33 71 -43 171 -26 269 15 85 39 147 55 138 6 -3 8
-3 4 2 -11 12 30 84 79 136 25 27 48 47 52 46 3 -1 23 8 44 20 26 16 37 29 37
46 0 34 -19 47 -70 47 -135 0 -277 -207 -324 -472 l-13 -73 -41 87 c-51 109
-95 239 -90 269 2 13 16 30 33 39 25 13 63 68 78 113 2 6 18 1 37 -13 42 -30
139 -40 158 -17 10 12 8 20 -11 43 -33 40 -50 93 -36 111 7 7 44 33 83 58 203
126 353 150 564 89 109 -32 149 -32 164 1 31 69 -103 136 -303 151 -154 10
-319 -36 -464 -131 -37 -25 -72 -45 -76 -45 -16 0 -9 183 10 275 21 105 95
290 123 309 10 8 42 36 71 63 80 75 243 211 341 283 49 36 114 89 144 117 30
29 70 57 88 62 43 12 96 50 88 62 -3 6 -12 8 -20 5 -7 -3 -16 -1 -19 4 -4 6
-12 10 -18 10 -7 0 -4 -7 6 -15 11 -7 26 -11 35 -9 13 4 13 3 -1 -6 -15 -9
-22 -8 -37 5 -11 10 -18 21 -15 25 4 6 -31 50 -40 50 -2 0 -11 -7 -19 -16 -12
-12 -16 -12 -16 -2 0 8 -3 9 -8 3 -4 -6 -24 -23 -44 -38 -21 -15 -38 -32 -38
-37 0 -12 -61 -97 -91 -128 -25 -25 -75 -52 -96 -52 -7 0 -13 -7 -13 -15 0 -8
-4 -15 -10 -15 -5 0 -10 5 -10 11 0 18 -23 34 -83 57 -83 31 -177 29 -177 -4
0 -7 -10 -20 -22 -28 -13 -8 -32 -31 -42 -51 -14 -25 -30 -38 -58 -47 -32 -9
-38 -15 -38 -40 l0 -28 -75 0 -75 0 -6 30 c-8 40 -38 40 -56 0 -7 -16 -18 -30
-24 -30 -14 0 -84 -65 -84 -78 0 -5 -9 -12 -20 -15 -11 -3 -20 0 -20 5 0 7
-16 9 -40 5 -30 -4 -40 -2 -40 9 0 8 -9 14 -20 14 -11 0 -20 5 -20 10 0 6 -18
10 -40 10 -22 0 -40 5 -40 10 0 6 -18 10 -40 10 -25 0 -40 5 -40 13 0 7 -9 18
-20 25 -12 7 -18 17 -15 22 8 13 -42 43 -56 34 -7 -4 -17 0 -23 8 -6 8 -19 17
-28 21 -12 4 -18 17 -19 39 0 18 -6 60 -12 93 -10 49 -15 60 -29 57 -10 -2
-18 -9 -18 -17 0 -7 -6 -18 -14 -24 -12 -10 -13 -8 -9 8 4 17 0 21 -18 22 -13
0 -18 3 -11 6 6 2 12 12 12 21 0 15 -2 15 -10 2 -17 -27 -11 -5 15 48 14 29
24 53 24 54 -4 7 84 164 109 196 52 65 76 121 66 150 -26 74 -111 63 -201 -26
-63 -63 -130 -137 -152 -170 -11 -15 -18 -18 -27 -11 -8 7 -15 6 -20 -2 -5 -8
-3 -9 6 -4 9 6 10 2 5 -15 -5 -15 -4 -20 4 -16 12 8 14 -4 5 -28 -3 -9 -12
-16 -20 -16 -7 0 -11 -6 -8 -13 3 -8 -2 -19 -10 -26 -13 -11 -16 -9 -22 13 -3
14 -11 23 -16 20 -5 -3 -3 7 6 24 8 16 12 32 9 35 -3 4 -1 12 4 19 6 7 13 26
17 42 6 24 9 27 17 15 8 -10 9 -7 6 14 -4 25 3 32 26 28 5 -1 6 3 2 9 -4 6 -1
18 6 26 6 8 9 17 6 21 -4 3 -12 -6 -18 -21 -7 -14 -17 -26 -22 -26 -5 0 -2 11
7 25 9 14 14 30 11 35 -4 6 1 13 9 16 9 3 16 10 16 16 0 5 -5 6 -12 2 -8 -5
-9 -2 -5 10 4 10 7 20 7 22 0 3 4 2 10 -1 6 -3 7 1 4 9 -4 10 -1 16 9 16 17 0
30 37 15 42 -6 2 -5 14 3 30 6 15 16 25 20 22 5 -3 6 3 2 12 -4 12 -3 15 5 10
8 -5 10 -2 6 8 -3 9 4 27 15 42 12 15 21 33 21 41 0 8 4 12 9 9 5 -4 7 3 4 14
-3 12 0 20 6 20 7 0 9 5 6 10 -3 6 -1 10 4 10 6 0 11 5 11 12 0 18 122 227
218 371 48 73 90 139 93 147 11 26 199 240 319 364 144 149 321 305 498 439
236 179 507 337 580 337 16 0 68 18 115 39 105 49 266 103 378 127 123 27 328
25 434 -4 84 -23 227 -88 309 -140 28 -18 63 -32 78 -32 29 0 68 30 68 53 0
19 80 55 174 78 106 27 351 36 507 20 329 -35 625 -140 902 -321 241 -157 376
-278 572 -510 142 -169 211 -235 305 -291 81 -48 191 -88 241 -89 57 0 136 28
158 57 29 36 26 50 -14 57 -35 7 -166 88 -197 123 -17 18 -16 19 17 20 75 2
202 92 236 168 21 45 25 122 8 158 -9 20 -6 30 15 62 21 30 26 50 26 97 0 97
-29 144 -106 172 l-39 14 106 104 c119 116 206 189 327 272 97 68 93 81 57
-148 -50 -314 -86 -488 -139 -673 -68 -235 -96 -312 -156 -438 -37 -77 -122
-207 -165 -253 -2 -2 -24 10 -48 27 -56 38 -167 94 -230 115 -56 19 -128 21
-145 4 -35 -35 0 -80 129 -166 127 -85 221 -166 341 -294 142 -153 223 -249
260 -310 17 -27 33 -48 38 -48 17 0 32 74 27 131 -9 101 -91 243 -222 387 -32
35 -54 67 -49 71 5 4 36 27 68 51 33 25 84 79 115 120 31 41 73 95 95 120 78
90 167 323 231 606 35 157 95 577 102 719 7 135 2 151 -57 202 -38 33 -224
111 -348 145 -106 30 -412 32 -577 5 -338 -57 -765 -210 -1018 -365 -37 -23
-73 -42 -81 -42 -7 0 -45 13 -84 29 -422 174 -1005 198 -1294 52 l-75 -37 19
59 c25 82 24 229 -2 333 -79 311 -348 524 -608 483z m-2022 -595 c440 -75 736
-176 924 -315 l69 -51 -133 -69 c-73 -37 -187 -105 -253 -150 l-120 -81 -18
24 c-10 12 -17 27 -16 31 4 12 -75 99 -233 257 -147 147 -245 230 -400 335
l-85 58 60 -7 c33 -4 125 -19 205 -32z m-365 -121 c147 -118 325 -271 325
-280 0 -2 -15 -17 -34 -33 -41 -36 -73 -109 -82 -183 -6 -48 -3 -64 19 -109
15 -29 40 -62 57 -73 24 -16 30 -27 30 -58 0 -55 25 -107 69 -147 l39 -35
-105 -115 c-58 -63 -137 -155 -176 -204 l-71 -88 -28 73 c-94 242 -183 717
-208 1109 -14 226 -13 285 3 273 6 -5 80 -64 162 -130z m5998 0 c21 -3 36 -9
35 -13 -2 -4 -42 -34 -90 -66 -198 -134 -472 -395 -567 -541 -28 -42 -60 -105
-72 -140 l-21 -64 -117 113 c-157 154 -373 317 -520 392 -18 10 -29 21 -25 26
29 26 386 156 561 204 312 86 620 120 816 89z m-5483 -470 c47 -49 108 -112
135 -141 l50 -54 -60 -54 c-96 -87 -99 -89 -135 -68 -28 17 -30 22 -30 77 0
78 -19 113 -71 127 -49 13 -61 38 -48 105 11 58 33 95 57 95 10 0 56 -39 102
-87z m5249 -183 c42 -12 51 -24 51 -73 0 -33 -5 -40 -35 -58 -46 -27 -54 -61
-26 -100 29 -39 36 -82 21 -120 -17 -40 -92 -97 -147 -111 -44 -11 -77 -42
-67 -62 9 -19 -85 87 -113 127 l-26 37 28 53 c30 57 103 157 184 255 55 65 67
70 130 52z m-6099 -2095 c0 -2 -9 -3 -19 -2 -11 0 -18 5 -15 9 4 6 34 0 34 -7z
m1480 -245 c0 -5 -9 -10 -20 -10 -11 0 -20 5 -20 10 0 6 9 10 20 10 11 0 20
-4 20 -10z m40 0 c0 -5 -4 -10 -10 -10 -5 0 -10 5 -10 10 0 6 5 10 10 10 6 0
10 -4 10 -10z m110 6 c0 -3 -4 -8 -10 -11 -5 -3 -10 -1 -10 4 0 6 5 11 10 11
6 0 10 -2 10 -4z m-1069 -1775 c30 -12 75 -38 98 -58 l43 -36 -7 -61 c-11
-114 -26 -211 -51 -332 -14 -67 -30 -167 -37 -223 l-12 -102 -77 52 c-43 28
-102 77 -131 109 -65 70 -131 194 -153 286 -40 171 29 338 157 379 53 18 96
14 170 -14z m2449 -1397 c-68 -27 -85 -40 -119 -86 l-35 -47 -65 61 c-37 34
-67 65 -69 69 -2 5 52 10 120 12 68 1 141 3 163 4 l40 1 -35 -14z m578 -23
c21 -11 44 -32 52 -48 8 -15 19 -31 24 -34 25 -19 -90 -129 -190 -181 -116
-60 -192 -79 -346 -85 l-137 -4 -6 44 c-8 50 11 98 67 173 31 40 41 46 153 83
221 74 314 87 383 52z m-1242 -20 c190 -33 255 -58 369 -144 81 -61 110 -94
125 -142 7 -22 20 -50 28 -63 8 -12 12 -25 10 -28 -15 -14 -187 -77 -245 -89
-130 -28 -219 -13 -339 55 -59 34 -79 58 -130 155 -64 124 -63 178 3 248 32
32 36 32 179 8z m114 -1174 c0 -8 -9 -22 -20 -32 -16 -15 -23 -16 -33 -6 -9
10 -7 16 12 32 27 22 41 24 41 6z m1997 -119 c-3 -8 -6 -5 -6 6 -1 11 2 17 5
13 3 -3 4 -12 1 -19z m-10 -43 c0 -8 -4 -15 -9 -15 -10 0 -11 14 -1 23 9 10
10 9 10 -8z m171 -568 c-7 -12 -11 -25 -10 -29 1 -5 -2 -8 -8 -8 -15 0 -12 30
3 31 6 0 1 5 -12 10 -15 6 -21 15 -17 24 5 14 -5 20 -27 16 -5 -1 -6 3 -2 9 3
6 10 8 14 5 5 -2 17 2 27 10 17 13 20 11 32 -16 10 -24 10 -34 0 -52z m-53
-57 c3 -5 1 -10 -4 -10 -6 0 -11 5 -11 10 0 6 2 10 4 10 3 0 8 -4 11 -10z"/>
<path d="M1919 6374 c7 -4 5 -14 -4 -27 -14 -23 -10 -67 6 -67 12 0 11 17 -1
25 -5 3 -10 11 -10 16 0 6 5 7 10 4 6 -4 19 -4 28 0 15 6 15 8 -3 21 -11 8
-19 18 -17 22 2 3 -1 7 -7 9 -7 1 -7 -1 -2 -3z"/>
<path d="M4085 6321 c-33 -15 -127 -101 -111 -101 3 0 -6 -24 -19 -52 -63
-136 -71 -330 -21 -499 57 -193 147 -360 256 -472 33 -33 60 -62 60 -64 0 -2
-11 -3 -25 -3 -38 0 -30 -27 15 -50 31 -16 59 -20 135 -20 71 0 95 3 95 13 0
7 29 32 64 55 157 103 301 334 342 550 15 81 11 126 -16 184 -10 21 -15 36
-11 35 3 -1 6 2 6 8 0 12 -46 14 -63 2 -8 -7 -19 -4 -33 9 -21 19 -21 18 -46
-11 -23 -27 -24 -28 -18 -6 5 16 4 21 -4 17 -6 -4 -11 -15 -11 -24 0 -12 -3
-13 -12 -4 -19 19 -38 14 -68 -18 -15 -16 -33 -30 -40 -30 -7 0 -25 -13 -40
-30 -24 -25 -35 -30 -77 -30 -35 0 -44 3 -33 10 12 8 12 10 -5 10 -11 0 -26 9
-33 20 -7 11 -21 20 -32 20 -13 0 -20 7 -20 20 0 12 -7 32 -16 45 -11 17 -14
35 -10 60 7 34 6 35 -24 35 -25 0 -30 4 -30 25 0 23 -4 25 -40 25 -25 0 -40 5
-40 13 0 8 -4 7 -11 -3 -17 -25 -2 78 21 138 20 53 25 97 14 126 -8 21 -49 20
-99 -3z m567 -483 c-7 -7 -12 -8 -12 -2 0 14 12 26 19 19 2 -3 -1 -11 -7 -17z
m25 0 c-3 -8 -6 -5 -6 6 -1 11 2 17 5 13 3 -3 4 -12 1 -19z"/>
<path d="M3877 6229 c7 -7 15 -10 18 -7 3 3 -2 9 -12 12 -14 6 -15 5 -6 -5z"/>
<path d="M4670 5947 c-35 -15 -36 -17 -21 -27 9 -5 21 -1 34 11 25 23 20 30
-13 16z"/>
<path d="M6435 5640 c3 -5 8 -10 11 -10 2 0 4 5 4 10 0 6 -5 10 -11 10 -5 0
-7 -4 -4 -10z"/>
<path d="M5397 5290 c-143 -18 -274 -73 -291 -123 -13 -36 3 -48 53 -35 154
38 182 42 311 41 149 -1 247 -21 406 -82 80 -31 459 -245 500 -282 51 -48 108
-2 80 64 -38 92 -336 285 -556 360 -154 52 -357 76 -503 57z"/>
<path d="M5531 4905 c-85 -19 -198 -74 -249 -119 -88 -80 -140 -200 -167 -390
-15 -104 -16 -120 -1 -197 33 -175 141 -334 268 -397 117 -57 266 -75 386 -47
184 44 346 164 422 314 33 66 60 211 61 327 1 89 -3 109 -31 181 -39 104 -87
156 -163 178 -52 15 -125 10 -145 -9 -16 -17 18 -64 72 -99 47 -31 63 -50 84
-95 24 -51 27 -68 27 -172 0 -209 -42 -310 -171 -408 -158 -120 -269 -146
-421 -98 -152 49 -233 134 -278 290 -38 131 0 366 78 483 39 58 120 114 205
142 50 17 88 21 192 21 76 0 131 4 135 10 12 20 -7 51 -45 70 -52 27 -176 34
-259 15z"/>
<path d="M5597 4711 c-14 -17 -30 -52 -35 -78 -20 -94 -34 -283 -31 -409 4
-115 6 -132 27 -161 67 -93 139 -20 167 170 55 363 38 498 -62 505 -35 3 -44
-1 -66 -27z"/>
<path d="M3487 4703 c-51 -13 -91 -193 -91 -418 -1 -167 12 -215 66 -244 87
-49 146 134 135 416 -8 172 -19 226 -53 242 -26 11 -28 12 -57 4z"/>
<path d="M4455 4055 c-74 -40 -115 -106 -115 -186 0 -69 27 -111 92 -143 99
-50 238 -27 292 47 13 18 21 48 24 90 4 57 1 66 -30 111 -19 29 -49 58 -73 70
-53 27 -150 33 -190 11z m154 -81 c72 -29 95 -125 40 -167 -62 -45 -196 -22
-219 38 -15 39 17 106 61 128 43 21 68 21 118 1z"/>
<path d="M6170 3850 c-35 -35 -19 -100 25 -100 24 0 65 41 65 66 0 19 -36 54
-55 54 -8 0 -24 -9 -35 -20z"/>
<path d="M2880 3815 c-7 -9 -15 -38 -18 -65 -4 -40 -2 -50 11 -50 17 0 87 74
87 93 0 35 -57 50 -80 22z"/>
<path d="M5937 3783 c-21 -25 -31 -86 -18 -112 16 -29 47 -26 82 8 31 32 40
86 17 109 -18 18 -63 15 -81 -5z"/>
<path d="M3020 3772 c-24 -20 -33 -82 -12 -89 7 -3 28 11 48 31 30 30 34 38
24 56 -13 25 -31 25 -60 2z"/>
<path d="M5292 1811 c-199 -20 -196 -18 -189 -137 5 -92 20 -130 45 -118 9 4
62 9 117 10 55 1 158 7 229 13 71 7 170 9 220 6 122 -9 129 -4 130 101 1 112
-5 130 -51 138 -67 11 -333 4 -501 -13z m467 -27 c53 -11 37 -29 -24 -27 -30
1 -55 -1 -55 -3 0 -2 5 -13 12 -23 9 -15 8 -24 -5 -45 -22 -33 -21 -46 2 -46
13 0 20 9 25 30 8 44 36 40 36 -5 l0 -35 -237 1 c-131 0 -232 3 -226 6 18 7
37 83 24 96 -13 13 -41 -8 -42 -32 0 -11 -3 -9 -9 7 -11 25 -38 29 -46 7 -5
-12 -9 -13 -20 -4 -22 18 -27 4 -14 -35 13 -41 36 -47 50 -13 5 12 9 17 9 10
1 -6 7 -18 15 -26 13 -13 8 -15 -41 -21 -31 -4 -57 -5 -58 -4 -1 2 -5 33 -8
69 l-6 66 167 7 c92 3 194 10 227 15 76 10 183 13 224 5z m35 -126 c4 -20 3
-28 -7 -28 -9 0 -12 9 -9 30 5 36 7 35 16 -2z"/>
<path d="M5577 1753 c-11 -10 -8 -101 2 -108 14 -8 19 5 27 63 5 42 4 52 -8
52 -8 0 -18 -3 -21 -7z"/>
<path d="M5345 1730 c-2 -3 -5 -23 -6 -44 -4 -43 18 -64 28 -26 4 16 8 19 15
8 7 -10 11 -9 23 6 15 19 15 19 15 -1 0 -26 19 -41 30 -23 4 7 10 8 13 3 3 -5
25 -7 48 -5 38 4 41 6 25 17 -14 11 -15 17 -6 34 15 28 5 41 -31 41 -19 0 -29
-5 -29 -15 0 -8 5 -15 10 -15 6 0 5 -8 -2 -20 -12 -18 -13 -17 -23 13 -9 30
-13 32 -58 32 -27 0 -50 -2 -52 -5z"/>
<path d="M5620 1711 c0 -37 24 -59 45 -41 29 24 11 70 -27 70 -13 0 -18 -8
-18 -29z"/>
<path d="M3947 1782 c-10 -10 -17 -24 -17 -30 0 -7 -4 -12 -10 -12 -5 0 -10
-5 -10 -11 0 -7 -31 -66 -69 -133 -159 -281 -212 -388 -274 -556 -36 -96 -79
-210 -96 -254 -26 -64 -31 -90 -29 -140 3 -58 4 -61 29 -64 21 -2 36 8 77 54
61 68 196 328 267 514 26 69 65 166 86 216 61 142 129 342 129 378 0 17 -5 37
-12 44 -18 18 -53 15 -71 -6z"/>
<path d="M5938 1739 c-30 -15 -38 -25 -38 -47 0 -38 57 -313 81 -391 24 -78
24 -77 -1 -84 -11 -3 -18 -1 -14 4 3 5 -3 9 -14 9 -10 0 -24 11 -30 25 -7 15
-17 22 -26 19 -8 -3 -17 0 -21 6 -4 7 3 9 24 5 24 -4 31 -2 31 11 0 11 -6 15
-20 11 -14 -4 -20 0 -20 12 0 23 -24 54 -44 57 -13 2 -15 -1 -6 -11 6 -7 10
-17 9 -21 -1 -5 1 -22 6 -37 6 -22 3 -31 -11 -43 -11 -9 -13 -12 -5 -8 11 5
13 3 8 -9 -3 -10 -2 -17 2 -17 5 0 11 7 15 15 3 8 11 15 18 14 10 0 10 -2 1
-6 -7 -2 -13 -11 -13 -19 0 -9 5 -12 10 -9 6 3 10 1 10 -4 0 -6 -4 -11 -10
-11 -5 0 -10 -5 -10 -11 0 -5 4 -8 9 -5 12 8 21 -19 20 -52 -1 -23 -3 -22 -8
8 l-7 35 -5 -47 c-2 -27 0 -48 4 -48 5 0 5 -6 1 -12 -5 -10 -4 -10 5 -2 14 12
22 45 25 96 1 21 5 41 9 45 5 4 5 0 1 -10 -4 -12 1 -19 17 -26 14 -5 26 -5 30
0 12 19 40 -31 49 -87 15 -98 23 -176 24 -231 1 -29 6 -53 11 -53 9 0 46 -98
114 -302 18 -53 17 -53 108 -37 43 8 63 16 63 26 0 8 -9 59 -21 114 -11 55
-18 105 -16 112 3 7 -3 26 -13 42 -19 32 -43 124 -39 146 2 8 -2 23 -8 35 -7
11 -17 56 -22 100 -6 43 -13 100 -17 125 -6 46 -6 47 24 54 21 4 32 14 37 32
8 33 26 51 45 45 9 -3 7 2 -4 11 -18 13 -22 12 -39 -7 -14 -16 -13 -13 3 12
17 25 18 32 7 32 -9 0 -18 -6 -21 -12 -3 -7 -3 -3 0 10 6 25 -11 31 -20 6 -9
-25 -31 -11 -32 22 -1 16 0 23 3 17 6 -17 20 -16 26 1 3 8 -2 20 -11 28 -11 9
-14 10 -8 1 5 -9 0 -13 -13 -13 -12 0 -21 -6 -22 -12 -1 -18 -17 23 -18 45 -1
9 6 17 14 17 22 0 18 21 -5 27 -11 3 -20 14 -20 25 0 10 -4 17 -10 13 -5 -3
-7 -13 -4 -23 5 -14 4 -14 -4 -2 -6 8 -9 17 -6 21 2 4 -3 9 -10 12 -8 3 -24
39 -36 79 -30 104 -40 127 -61 138 -25 14 -39 12 -81 -11z m289 -451 c-3 -8
-6 -5 -6 6 -1 11 2 17 5 13 3 -3 4 -12 1 -19z m-272 -88 c3 -5 1 -10 -4 -10
-6 0 -11 5 -11 10 0 6 2 10 4 10 3 0 8 -4 11 -10z"/>
<path d="M6280 1575 c0 -8 5 -15 11 -15 5 0 7 -5 4 -10 -3 -6 -17 -7 -31 -4
-18 5 -24 2 -24 -10 0 -19 16 -21 24 -3 3 6 5 0 3 -14 -2 -15 2 -35 10 -45 11
-15 13 -15 13 -2 0 9 -6 19 -12 21 -10 4 -10 6 0 6 6 1 12 6 12 12 0 20 26 39
39 26 8 -8 11 -6 11 11 0 12 -9 26 -19 32 -27 14 -41 13 -41 -5z"/>
<path d="M6296 1485 c4 -8 8 -15 10 -15 2 0 4 7 4 15 0 8 -4 15 -10 15 -5 0
-7 -7 -4 -15z"/>
<path d="M5784 1305 c-7 -16 2 -35 17 -35 5 0 9 7 9 16 0 9 -5 12 -12 8 -8 -5
-9 -2 -5 9 3 10 4 17 1 17 -2 0 -7 -7 -10 -15z"/>
<path d="M5645 1232 c19 -13 16 -34 -6 -39 -14 -4 -17 -8 -9 -13 7 -4 9 -13 5
-20 -6 -9 -10 -9 -17 1 -7 11 -8 9 -6 -6 3 -14 10 -19 26 -17 15 2 22 -2 22
-12 0 -9 8 -16 18 -17 12 0 10 -3 -8 -10 -20 -8 -22 -12 -10 -19 8 -5 22 -10
31 -10 9 0 22 -6 28 -14 10 -12 24 -14 49 -7 1 1 -3 11 -10 24 -7 12 -11 26
-10 31 2 5 -3 16 -11 25 -8 9 -18 30 -21 46 l-8 30 26 -24 c14 -14 26 -21 26
-16 0 4 -8 13 -17 20 -14 10 -15 16 -5 28 10 12 8 15 -15 15 -16 0 -33 -4 -39
-9 -8 -6 -14 -4 -18 6 -3 8 -11 15 -18 15 -8 0 -9 -3 -3 -8z m63 -81 c-2 -9
-11 -16 -21 -17 -12 -1 -13 -1 -2 3 8 2 15 11 15 19 0 17 -27 19 -33 2 -2 -8
-8 -9 -13 -4 -5 5 -4 11 3 13 7 2 9 11 6 20 -5 13 -2 13 21 -2 15 -10 26 -25
24 -34z m27 -31 c3 -5 2 -10 -4 -10 -5 0 -13 5 -16 10 -3 6 -2 10 4 10 5 0 13
-4 16 -10z m10 -50 c3 -5 1 -10 -4 -10 -6 0 -11 5 -11 10 0 6 2 10 4 10 3 0 8
-4 11 -10z"/>
<path d="M6420 1038 c0 -9 5 -20 10 -23 13 -8 13 5 0 25 -8 13 -10 13 -10 -2z"/>
<path d="M5740 1029 c0 -4 8 -13 17 -20 11 -10 14 -10 9 -1 -4 6 -2 12 3 12 6
0 11 4 11 8 0 4 -9 8 -20 8 -11 0 -20 -3 -20 -7z"/>
<path d="M6380 885 c0 -6 9 -18 20 -28 21 -18 26 -12 10 13 -5 8 -10 11 -10 5
0 -5 -5 -3 -10 5 -5 8 -10 10 -10 5z"/>
</g>
</svg>
